<mxfile host="Electron" agent="Mozilla/5.0 (Windows NT 10.0; Win64; x64) AppleWebKit/537.36 (KHTML, like Gecko) draw.io/27.0.2 Chrome/134.0.6998.205 Electron/35.3.0 Safari/537.36" version="27.0.2">
  <diagram name="Page-1" id="A6NhABvrQZ76DW8AFj8i">
    <mxGraphModel dx="5328" dy="2443" grid="1" gridSize="10" guides="1" tooltips="1" connect="1" arrows="1" fold="1" page="1" pageScale="1" pageWidth="850" pageHeight="1100" math="0" shadow="0">
      <root>
        <mxCell id="0" />
        <mxCell id="1" parent="0" />
        <mxCell id="WPqpw8OH2dosxsMt212a-1" value="Client" style="rounded=0;whiteSpace=wrap;html=1;" parent="1" vertex="1">
          <mxGeometry x="-1710" y="100" width="230" height="120" as="geometry" />
        </mxCell>
        <mxCell id="WPqpw8OH2dosxsMt212a-2" value="2.1" style="swimlane;childLayout=stackLayout;horizontal=1;startSize=50;horizontalStack=0;rounded=1;fontSize=14;fontStyle=0;strokeWidth=2;resizeParent=0;resizeLast=1;shadow=0;dashed=0;align=center;arcSize=4;whiteSpace=wrap;html=1;" parent="1" vertex="1">
          <mxGeometry x="-1020" y="70" width="160" height="120" as="geometry" />
        </mxCell>
        <mxCell id="WPqpw8OH2dosxsMt212a-12" value="List_car" style="text;html=1;align=center;verticalAlign=middle;resizable=0;points=[];autosize=1;strokeColor=none;fillColor=none;" parent="WPqpw8OH2dosxsMt212a-2" vertex="1">
          <mxGeometry y="50" width="160" height="70" as="geometry" />
        </mxCell>
        <mxCell id="yKhPgB3xR9wps0WLkA4A-12" style="edgeStyle=orthogonalEdgeStyle;rounded=0;orthogonalLoop=1;jettySize=auto;html=1;exitX=1;exitY=0.5;exitDx=0;exitDy=0;" edge="1" parent="1" source="WPqpw8OH2dosxsMt212a-4" target="WPqpw8OH2dosxsMt212a-12">
          <mxGeometry relative="1" as="geometry" />
        </mxCell>
        <mxCell id="WPqpw8OH2dosxsMt212a-4" value="&amp;nbsp; &amp;nbsp; &amp;nbsp; &amp;nbsp; &amp;nbsp;Avaliable_&lt;div&gt;&amp;nbsp; &amp;nbsp; &amp;nbsp; &amp;nbsp; &amp;nbsp;car&lt;/div&gt;" style="html=1;dashed=0;whiteSpace=wrap;shape=mxgraph.dfd.dataStoreID;align=left;spacingLeft=3;points=[[0,0],[0.5,0],[1,0],[0,0.5],[1,0.5],[0,1],[0.5,1],[1,1]];" parent="1" vertex="1">
          <mxGeometry x="-1390" width="230" height="120" as="geometry" />
        </mxCell>
        <mxCell id="WPqpw8OH2dosxsMt212a-5" value="2.2" style="swimlane;childLayout=stackLayout;horizontal=1;startSize=50;horizontalStack=0;rounded=1;fontSize=14;fontStyle=0;strokeWidth=2;resizeParent=0;resizeLast=1;shadow=0;dashed=0;align=center;arcSize=4;whiteSpace=wrap;html=1;" parent="1" vertex="1">
          <mxGeometry x="-450" y="60" width="160" height="120" as="geometry" />
        </mxCell>
        <mxCell id="WPqpw8OH2dosxsMt212a-13" value="Select_car" style="text;html=1;align=center;verticalAlign=middle;resizable=0;points=[];autosize=1;strokeColor=none;fillColor=none;" parent="WPqpw8OH2dosxsMt212a-5" vertex="1">
          <mxGeometry y="50" width="160" height="70" as="geometry" />
        </mxCell>
        <mxCell id="WPqpw8OH2dosxsMt212a-7" value="2.3" style="swimlane;childLayout=stackLayout;horizontal=1;startSize=50;horizontalStack=0;rounded=1;fontSize=14;fontStyle=0;strokeWidth=2;resizeParent=0;resizeLast=1;shadow=0;dashed=0;align=center;arcSize=4;whiteSpace=wrap;html=1;" parent="1" vertex="1">
          <mxGeometry x="-150" y="65" width="160" height="120" as="geometry" />
        </mxCell>
        <mxCell id="WPqpw8OH2dosxsMt212a-14" value="Enter_details" style="text;html=1;align=center;verticalAlign=middle;resizable=0;points=[];autosize=1;strokeColor=none;fillColor=none;" parent="WPqpw8OH2dosxsMt212a-7" vertex="1">
          <mxGeometry y="50" width="160" height="70" as="geometry" />
        </mxCell>
        <mxCell id="-Z-DS7IXJV0FyssEUXty-7" style="edgeStyle=orthogonalEdgeStyle;rounded=0;orthogonalLoop=1;jettySize=auto;html=1;exitX=0;exitY=0.25;exitDx=0;exitDy=0;entryX=0.75;entryY=0;entryDx=0;entryDy=0;" parent="1" source="WPqpw8OH2dosxsMt212a-9" target="WPqpw8OH2dosxsMt212a-2" edge="1">
          <mxGeometry relative="1" as="geometry">
            <mxPoint x="660" y="290" as="targetPoint" />
          </mxGeometry>
        </mxCell>
        <mxCell id="-Z-DS7IXJV0FyssEUXty-10" value="no" style="edgeLabel;html=1;align=center;verticalAlign=middle;resizable=0;points=[];" parent="-Z-DS7IXJV0FyssEUXty-7" vertex="1" connectable="0">
          <mxGeometry x="-0.4172" relative="1" as="geometry">
            <mxPoint as="offset" />
          </mxGeometry>
        </mxCell>
        <mxCell id="WPqpw8OH2dosxsMt212a-9" value="2.4" style="swimlane;childLayout=stackLayout;horizontal=1;startSize=50;horizontalStack=0;rounded=1;fontSize=14;fontStyle=0;strokeWidth=2;resizeParent=0;resizeLast=1;shadow=0;dashed=0;align=center;arcSize=4;whiteSpace=wrap;html=1;" parent="1" vertex="1">
          <mxGeometry x="-760" y="50" width="160" height="120" as="geometry" />
        </mxCell>
        <mxCell id="WPqpw8OH2dosxsMt212a-18" value="Compare_with_budget" style="text;html=1;align=center;verticalAlign=middle;resizable=0;points=[];autosize=1;strokeColor=none;fillColor=none;" parent="WPqpw8OH2dosxsMt212a-9" vertex="1">
          <mxGeometry y="50" width="160" height="70" as="geometry" />
        </mxCell>
        <mxCell id="8inZqM1Nh-mBHfwORftA-11" style="edgeStyle=orthogonalEdgeStyle;rounded=0;orthogonalLoop=1;jettySize=auto;html=1;exitX=-0.016;exitY=0.647;exitDx=0;exitDy=0;exitPerimeter=0;" parent="1" source="WPqpw8OH2dosxsMt212a-11" target="WPqpw8OH2dosxsMt212a-7" edge="1">
          <mxGeometry relative="1" as="geometry" />
        </mxCell>
        <mxCell id="8inZqM1Nh-mBHfwORftA-12" value="rental_request" style="edgeLabel;html=1;align=center;verticalAlign=middle;resizable=0;points=[];" parent="8inZqM1Nh-mBHfwORftA-11" vertex="1" connectable="0">
          <mxGeometry x="0.2071" y="2" relative="1" as="geometry">
            <mxPoint x="6" y="2" as="offset" />
          </mxGeometry>
        </mxCell>
        <mxCell id="WPqpw8OH2dosxsMt212a-11" value="&amp;nbsp; &amp;nbsp; &amp;nbsp; &amp;nbsp; &amp;nbsp;Requests" style="html=1;dashed=0;whiteSpace=wrap;shape=mxgraph.dfd.dataStoreID;align=left;spacingLeft=3;points=[[0,0],[0.5,0],[1,0],[0,0.5],[1,0.5],[0,1],[0.5,1],[1,1]];" parent="1" vertex="1">
          <mxGeometry x="150" y="70" width="180" height="90" as="geometry" />
        </mxCell>
        <mxCell id="WPqpw8OH2dosxsMt212a-46" style="edgeStyle=orthogonalEdgeStyle;rounded=0;orthogonalLoop=1;jettySize=auto;html=1;exitX=1.022;exitY=0.039;exitDx=0;exitDy=0;entryX=0.006;entryY=0.325;entryDx=0;entryDy=0;entryPerimeter=0;exitPerimeter=0;" parent="1" source="WPqpw8OH2dosxsMt212a-18" target="WPqpw8OH2dosxsMt212a-13" edge="1">
          <mxGeometry relative="1" as="geometry" />
        </mxCell>
        <mxCell id="-Z-DS7IXJV0FyssEUXty-11" value="yes" style="edgeLabel;html=1;align=center;verticalAlign=middle;resizable=0;points=[];" parent="WPqpw8OH2dosxsMt212a-46" vertex="1" connectable="0">
          <mxGeometry x="-0.2888" y="-3" relative="1" as="geometry">
            <mxPoint as="offset" />
          </mxGeometry>
        </mxCell>
        <mxCell id="WPqpw8OH2dosxsMt212a-49" style="edgeStyle=orthogonalEdgeStyle;rounded=0;orthogonalLoop=1;jettySize=auto;html=1;exitX=1.03;exitY=0.271;exitDx=0;exitDy=0;entryX=0;entryY=0.75;entryDx=0;entryDy=0;exitPerimeter=0;" parent="1" source="WPqpw8OH2dosxsMt212a-13" target="WPqpw8OH2dosxsMt212a-7" edge="1">
          <mxGeometry relative="1" as="geometry" />
        </mxCell>
        <mxCell id="-Z-DS7IXJV0FyssEUXty-12" value="car_details" style="edgeLabel;html=1;align=center;verticalAlign=middle;resizable=0;points=[];" parent="WPqpw8OH2dosxsMt212a-49" vertex="1" connectable="0">
          <mxGeometry x="-0.208" y="2" relative="1" as="geometry">
            <mxPoint x="-1" as="offset" />
          </mxGeometry>
        </mxCell>
        <mxCell id="-Z-DS7IXJV0FyssEUXty-19" value="2.5" style="swimlane;childLayout=stackLayout;horizontal=1;startSize=50;horizontalStack=0;rounded=1;fontSize=14;fontStyle=0;strokeWidth=2;resizeParent=0;resizeLast=1;shadow=0;dashed=0;align=center;arcSize=4;whiteSpace=wrap;html=1;" parent="1" vertex="1">
          <mxGeometry x="-1320" y="-260" width="160" height="120" as="geometry" />
        </mxCell>
        <mxCell id="-Z-DS7IXJV0FyssEUXty-21" value="Log_In" style="text;html=1;align=center;verticalAlign=middle;resizable=0;points=[];autosize=1;strokeColor=none;fillColor=none;" parent="-Z-DS7IXJV0FyssEUXty-19" vertex="1">
          <mxGeometry y="50" width="160" height="70" as="geometry" />
        </mxCell>
        <mxCell id="-Z-DS7IXJV0FyssEUXty-37" style="edgeStyle=orthogonalEdgeStyle;rounded=0;orthogonalLoop=1;jettySize=auto;html=1;exitX=0.5;exitY=1;exitDx=0;exitDy=0;entryX=0.5;entryY=0;entryDx=0;entryDy=0;" parent="1" source="-Z-DS7IXJV0FyssEUXty-26" edge="1" target="WPqpw8OH2dosxsMt212a-2">
          <mxGeometry relative="1" as="geometry">
            <mxPoint x="420" y="190" as="targetPoint" />
          </mxGeometry>
        </mxCell>
        <mxCell id="-Z-DS7IXJV0FyssEUXty-46" value="credentials_valid" style="edgeLabel;html=1;align=center;verticalAlign=middle;resizable=0;points=[];" parent="-Z-DS7IXJV0FyssEUXty-37" vertex="1" connectable="0">
          <mxGeometry x="-0.5771" y="3" relative="1" as="geometry">
            <mxPoint y="1" as="offset" />
          </mxGeometry>
        </mxCell>
        <mxCell id="-Z-DS7IXJV0FyssEUXty-26" value="2.6" style="swimlane;childLayout=stackLayout;horizontal=1;startSize=50;horizontalStack=0;rounded=1;fontSize=14;fontStyle=0;strokeWidth=2;resizeParent=0;resizeLast=1;shadow=0;dashed=0;align=center;arcSize=4;whiteSpace=wrap;html=1;" parent="1" vertex="1">
          <mxGeometry x="-930" y="-250" width="160" height="120" as="geometry" />
        </mxCell>
        <mxCell id="-Z-DS7IXJV0FyssEUXty-28" value="Is_Found" style="text;html=1;align=center;verticalAlign=middle;resizable=0;points=[];autosize=1;strokeColor=none;fillColor=none;" parent="-Z-DS7IXJV0FyssEUXty-26" vertex="1">
          <mxGeometry y="50" width="160" height="70" as="geometry" />
        </mxCell>
        <mxCell id="-Z-DS7IXJV0FyssEUXty-41" style="edgeStyle=orthogonalEdgeStyle;rounded=0;orthogonalLoop=1;jettySize=auto;html=1;exitX=1.014;exitY=0.387;exitDx=0;exitDy=0;entryX=0;entryY=0.5;entryDx=0;entryDy=0;exitPerimeter=0;" parent="1" source="-Z-DS7IXJV0FyssEUXty-29" target="-Z-DS7IXJV0FyssEUXty-32" edge="1">
          <mxGeometry relative="1" as="geometry" />
        </mxCell>
        <mxCell id="-Z-DS7IXJV0FyssEUXty-48" value="save_user_data" style="edgeLabel;html=1;align=center;verticalAlign=middle;resizable=0;points=[];" parent="-Z-DS7IXJV0FyssEUXty-41" vertex="1" connectable="0">
          <mxGeometry x="0.1033" y="-2" relative="1" as="geometry">
            <mxPoint y="1" as="offset" />
          </mxGeometry>
        </mxCell>
        <mxCell id="-Z-DS7IXJV0FyssEUXty-29" value="2.7" style="swimlane;childLayout=stackLayout;horizontal=1;startSize=50;horizontalStack=0;rounded=1;fontSize=14;fontStyle=0;strokeWidth=2;resizeParent=0;resizeLast=1;shadow=0;dashed=0;align=center;arcSize=4;whiteSpace=wrap;html=1;" parent="1" vertex="1">
          <mxGeometry x="-480" y="-260" width="160" height="120" as="geometry" />
        </mxCell>
        <mxCell id="-Z-DS7IXJV0FyssEUXty-31" value="Sign_Up" style="text;html=1;align=center;verticalAlign=middle;resizable=0;points=[];autosize=1;strokeColor=none;fillColor=none;" parent="-Z-DS7IXJV0FyssEUXty-29" vertex="1">
          <mxGeometry y="50" width="160" height="70" as="geometry" />
        </mxCell>
        <mxCell id="-Z-DS7IXJV0FyssEUXty-42" style="edgeStyle=orthogonalEdgeStyle;rounded=0;orthogonalLoop=1;jettySize=auto;html=1;entryX=0.5;entryY=0;entryDx=0;entryDy=0;" parent="1" target="-Z-DS7IXJV0FyssEUXty-19" edge="1">
          <mxGeometry relative="1" as="geometry">
            <mxPoint x="-70" y="-270" as="sourcePoint" />
            <Array as="points">
              <mxPoint x="-159" y="-330" />
              <mxPoint x="-1190" y="-330" />
              <mxPoint x="-1190" y="-200" />
            </Array>
          </mxGeometry>
        </mxCell>
        <mxCell id="-Z-DS7IXJV0FyssEUXty-49" value="retrieve_user_data" style="edgeLabel;html=1;align=center;verticalAlign=middle;resizable=0;points=[];" parent="-Z-DS7IXJV0FyssEUXty-42" vertex="1" connectable="0">
          <mxGeometry x="-0.1562" y="3" relative="1" as="geometry">
            <mxPoint as="offset" />
          </mxGeometry>
        </mxCell>
        <mxCell id="-Z-DS7IXJV0FyssEUXty-32" value="&amp;nbsp; &amp;nbsp; &amp;nbsp; &amp;nbsp; &amp;nbsp; &amp;nbsp; &amp;nbsp;Ciients" style="html=1;dashed=0;whiteSpace=wrap;shape=mxgraph.dfd.dataStoreID;align=left;spacingLeft=3;points=[[0,0],[0.5,0],[1,0],[0,0.5],[1,0.5],[0,1],[0.5,1],[1,1]];" parent="1" vertex="1">
          <mxGeometry x="-130" y="-270" width="320" height="110" as="geometry" />
        </mxCell>
        <mxCell id="-Z-DS7IXJV0FyssEUXty-33" style="edgeStyle=orthogonalEdgeStyle;rounded=0;orthogonalLoop=1;jettySize=auto;html=1;exitX=0.5;exitY=0;exitDx=0;exitDy=0;entryX=0;entryY=0.5;entryDx=0;entryDy=0;" parent="1" source="WPqpw8OH2dosxsMt212a-1" target="-Z-DS7IXJV0FyssEUXty-19" edge="1">
          <mxGeometry relative="1" as="geometry" />
        </mxCell>
        <mxCell id="-Z-DS7IXJV0FyssEUXty-44" value="log_in_credentials" style="edgeLabel;html=1;align=center;verticalAlign=middle;resizable=0;points=[];" parent="-Z-DS7IXJV0FyssEUXty-33" vertex="1" connectable="0">
          <mxGeometry x="0.1002" relative="1" as="geometry">
            <mxPoint as="offset" />
          </mxGeometry>
        </mxCell>
        <mxCell id="-Z-DS7IXJV0FyssEUXty-36" style="edgeStyle=orthogonalEdgeStyle;rounded=0;orthogonalLoop=1;jettySize=auto;html=1;exitX=1;exitY=0.25;exitDx=0;exitDy=0;entryX=0;entryY=0.25;entryDx=0;entryDy=0;" parent="1" source="-Z-DS7IXJV0FyssEUXty-19" target="-Z-DS7IXJV0FyssEUXty-26" edge="1">
          <mxGeometry relative="1" as="geometry" />
        </mxCell>
        <mxCell id="-Z-DS7IXJV0FyssEUXty-43" value="verify_credentials" style="edgeLabel;html=1;align=center;verticalAlign=middle;resizable=0;points=[];" parent="-Z-DS7IXJV0FyssEUXty-36" vertex="1" connectable="0">
          <mxGeometry x="-0.3469" y="11" relative="1" as="geometry">
            <mxPoint as="offset" />
          </mxGeometry>
        </mxCell>
        <mxCell id="-Z-DS7IXJV0FyssEUXty-39" style="edgeStyle=orthogonalEdgeStyle;rounded=0;orthogonalLoop=1;jettySize=auto;html=1;exitX=1;exitY=0.25;exitDx=0;exitDy=0;entryX=0.026;entryY=0.628;entryDx=0;entryDy=0;entryPerimeter=0;" parent="1" source="-Z-DS7IXJV0FyssEUXty-26" target="-Z-DS7IXJV0FyssEUXty-31" edge="1">
          <mxGeometry relative="1" as="geometry" />
        </mxCell>
        <mxCell id="-Z-DS7IXJV0FyssEUXty-47" value="credantials_not_found" style="edgeLabel;html=1;align=center;verticalAlign=middle;resizable=0;points=[];" parent="-Z-DS7IXJV0FyssEUXty-39" vertex="1" connectable="0">
          <mxGeometry x="0.0686" y="2" relative="1" as="geometry">
            <mxPoint as="offset" />
          </mxGeometry>
        </mxCell>
        <mxCell id="8inZqM1Nh-mBHfwORftA-1" value="Admin" style="rounded=0;whiteSpace=wrap;html=1;" parent="1" vertex="1">
          <mxGeometry x="450" y="30" width="310" height="110" as="geometry" />
        </mxCell>
        <mxCell id="8inZqM1Nh-mBHfwORftA-4" value="2.9" style="swimlane;childLayout=stackLayout;horizontal=1;startSize=50;horizontalStack=0;rounded=1;fontSize=14;fontStyle=0;strokeWidth=2;resizeParent=0;resizeLast=1;shadow=0;dashed=0;align=center;arcSize=4;whiteSpace=wrap;html=1;" parent="1" vertex="1">
          <mxGeometry x="-540" y="350" width="160" height="120" as="geometry" />
        </mxCell>
        <mxCell id="8inZqM1Nh-mBHfwORftA-7" value="Check_Client_Status" style="text;html=1;align=center;verticalAlign=middle;resizable=0;points=[];autosize=1;strokeColor=none;fillColor=none;" parent="8inZqM1Nh-mBHfwORftA-4" vertex="1">
          <mxGeometry y="50" width="160" height="70" as="geometry" />
        </mxCell>
        <mxCell id="8inZqM1Nh-mBHfwORftA-8" value="2.10" style="swimlane;childLayout=stackLayout;horizontal=1;startSize=50;horizontalStack=0;rounded=1;fontSize=14;fontStyle=0;strokeWidth=2;resizeParent=0;resizeLast=1;shadow=0;dashed=0;align=center;arcSize=4;whiteSpace=wrap;html=1;" parent="1" vertex="1">
          <mxGeometry x="-950" y="360" width="160" height="130" as="geometry" />
        </mxCell>
        <mxCell id="8inZqM1Nh-mBHfwORftA-10" value="Make-Decision" style="text;html=1;align=center;verticalAlign=middle;resizable=0;points=[];autosize=1;strokeColor=none;fillColor=none;" parent="8inZqM1Nh-mBHfwORftA-8" vertex="1">
          <mxGeometry y="50" width="160" height="80" as="geometry" />
        </mxCell>
        <mxCell id="8inZqM1Nh-mBHfwORftA-17" value="2.11" style="swimlane;childLayout=stackLayout;horizontal=1;startSize=50;horizontalStack=0;rounded=1;fontSize=14;fontStyle=0;strokeWidth=2;resizeParent=0;resizeLast=1;shadow=0;dashed=0;align=center;arcSize=4;whiteSpace=wrap;html=1;" parent="1" vertex="1">
          <mxGeometry x="-1290" y="360" width="160" height="120" as="geometry" />
        </mxCell>
        <mxCell id="8inZqM1Nh-mBHfwORftA-19" value="Update_Request_Status" style="text;html=1;align=center;verticalAlign=middle;resizable=0;points=[];autosize=1;strokeColor=none;fillColor=none;" parent="8inZqM1Nh-mBHfwORftA-17" vertex="1">
          <mxGeometry y="50" width="160" height="70" as="geometry" />
        </mxCell>
        <mxCell id="yKhPgB3xR9wps0WLkA4A-14" style="edgeStyle=orthogonalEdgeStyle;rounded=0;orthogonalLoop=1;jettySize=auto;html=1;exitX=0;exitY=0.25;exitDx=0;exitDy=0;entryX=1;entryY=0.25;entryDx=0;entryDy=0;" edge="1" parent="1" source="8inZqM1Nh-mBHfwORftA-2" target="8inZqM1Nh-mBHfwORftA-4">
          <mxGeometry relative="1" as="geometry" />
        </mxCell>
        <mxCell id="8inZqM1Nh-mBHfwORftA-2" value="2.8" style="swimlane;childLayout=stackLayout;horizontal=1;startSize=50;horizontalStack=0;rounded=1;fontSize=14;fontStyle=0;strokeWidth=2;resizeParent=0;resizeLast=1;shadow=0;dashed=0;align=center;arcSize=4;whiteSpace=wrap;html=1;" parent="1" vertex="1">
          <mxGeometry x="-180" y="350" width="160" height="120" as="geometry" />
        </mxCell>
        <mxCell id="8inZqM1Nh-mBHfwORftA-6" value="Retrieve_Request" style="text;html=1;align=center;verticalAlign=middle;resizable=0;points=[];autosize=1;strokeColor=none;fillColor=none;" parent="8inZqM1Nh-mBHfwORftA-2" vertex="1">
          <mxGeometry y="50" width="160" height="70" as="geometry" />
        </mxCell>
        <mxCell id="yKhPgB3xR9wps0WLkA4A-9" style="edgeStyle=orthogonalEdgeStyle;rounded=0;orthogonalLoop=1;jettySize=auto;html=1;exitX=0.5;exitY=1;exitDx=0;exitDy=0;entryX=0.328;entryY=1.074;entryDx=0;entryDy=0;entryPerimeter=0;" edge="1" parent="1" source="WPqpw8OH2dosxsMt212a-11" target="WPqpw8OH2dosxsMt212a-12">
          <mxGeometry relative="1" as="geometry">
            <Array as="points">
              <mxPoint x="140" y="270" />
              <mxPoint x="-1197" y="270" />
            </Array>
          </mxGeometry>
        </mxCell>
        <mxCell id="yKhPgB3xR9wps0WLkA4A-10" style="edgeStyle=orthogonalEdgeStyle;rounded=0;orthogonalLoop=1;jettySize=auto;html=1;exitX=0.5;exitY=1;exitDx=0;exitDy=0;entryX=0.453;entryY=1.012;entryDx=0;entryDy=0;entryPerimeter=0;" edge="1" parent="1" source="8inZqM1Nh-mBHfwORftA-1" target="8inZqM1Nh-mBHfwORftA-10">
          <mxGeometry relative="1" as="geometry">
            <Array as="points">
              <mxPoint x="525" y="650" />
              <mxPoint x="-877" y="650" />
            </Array>
          </mxGeometry>
        </mxCell>
        <mxCell id="yKhPgB3xR9wps0WLkA4A-13" style="edgeStyle=orthogonalEdgeStyle;rounded=0;orthogonalLoop=1;jettySize=auto;html=1;exitX=1;exitY=1;exitDx=0;exitDy=0;entryX=1.006;entryY=0.577;entryDx=0;entryDy=0;entryPerimeter=0;" edge="1" parent="1" source="WPqpw8OH2dosxsMt212a-11" target="8inZqM1Nh-mBHfwORftA-6">
          <mxGeometry relative="1" as="geometry" />
        </mxCell>
        <mxCell id="yKhPgB3xR9wps0WLkA4A-15" style="edgeStyle=orthogonalEdgeStyle;rounded=0;orthogonalLoop=1;jettySize=auto;html=1;exitX=0.5;exitY=1;exitDx=0;exitDy=0;entryX=0.506;entryY=1.096;entryDx=0;entryDy=0;entryPerimeter=0;" edge="1" parent="1" source="-Z-DS7IXJV0FyssEUXty-32" target="8inZqM1Nh-mBHfwORftA-7">
          <mxGeometry relative="1" as="geometry">
            <Array as="points">
              <mxPoint x="410" y="-150" />
              <mxPoint x="410" y="560" />
              <mxPoint x="-459" y="560" />
            </Array>
          </mxGeometry>
        </mxCell>
        <mxCell id="yKhPgB3xR9wps0WLkA4A-18" style="edgeStyle=orthogonalEdgeStyle;rounded=0;orthogonalLoop=1;jettySize=auto;html=1;entryX=1.025;entryY=0.29;entryDx=0;entryDy=0;entryPerimeter=0;" edge="1" parent="1" source="8inZqM1Nh-mBHfwORftA-7" target="8inZqM1Nh-mBHfwORftA-10">
          <mxGeometry relative="1" as="geometry" />
        </mxCell>
        <mxCell id="yKhPgB3xR9wps0WLkA4A-19" style="edgeStyle=orthogonalEdgeStyle;rounded=0;orthogonalLoop=1;jettySize=auto;html=1;entryX=1.016;entryY=0.492;entryDx=0;entryDy=0;entryPerimeter=0;" edge="1" parent="1" source="8inZqM1Nh-mBHfwORftA-10" target="8inZqM1Nh-mBHfwORftA-19">
          <mxGeometry relative="1" as="geometry" />
        </mxCell>
      </root>
    </mxGraphModel>
  </diagram>
</mxfile>
